<?xml version="1.0" encoding="UTF-8"?>
<svg id="Layer_2" data-name="Layer 2" xmlns="http://www.w3.org/2000/svg" viewBox="0 0 156.18 156.11">
  <defs>
    <style>
      .cls-1 {
        fill: #f40824;
        stroke-width: 0px;
      }
    </style>
  </defs>
  <g id="Layer_6" data-name="Layer 6">
    <g id="Phone">
      <g id="Path_782" data-name="Path 782">
        <path class="cls-1" d="m147.52,107.37c-10.4,0-20.73-1.64-30.61-4.86-3.08-1.04-6.48-.23-8.76,2.08l-13.62,17.08c-25.86-12.68-46.85-33.49-59.75-59.23l16.91-14.4c2.27-2.34,3.07-5.74,2.08-8.85-3.25-9.88-4.89-20.21-4.86-30.61-.05-4.72-3.86-8.54-8.59-8.59H10.32C5.64,0,0,2.08,0,8.59c.67,81.19,66.33,146.85,147.52,147.52,5.02-.24,8.89-4.51,8.65-9.53-.01-.24-.03-.47-.06-.71v-29.92c-.05-4.72-3.86-8.54-8.59-8.59Z"/>
      </g>
    </g>
  </g>
</svg>