<?xml version="1.0" encoding="UTF-8"?>
<svg id="Layer_2" data-name="Layer 2" xmlns="http://www.w3.org/2000/svg" viewBox="0 0 173.45 173.45">
  <defs>
    <style>
      .cls-1 {
        fill: #f40824;
        stroke-width: 0px;
      }
    </style>
  </defs>
  <g id="Layer_6" data-name="Layer 6">
    <g id="Website">
      <g id="Path_331" data-name="Path 331">
        <path class="cls-1" d="m86.64,0C38.74.05-.05,38.92,0,86.81c.05,47.9,38.92,86.69,86.81,86.64,47.86-.05,86.64-38.86,86.64-86.73C173.45,38.83,134.62,0,86.73,0h-.09Zm60.1,52.04h-25.58c-2.71-10.74-6.73-21.11-11.97-30.87,15.82,5.45,29.15,16.41,37.55,30.87Zm-60.01-34.34c7.28,10.51,12.87,22.1,16.56,34.34h-33.13c3.69-12.24,9.28-23.83,16.56-34.34ZM19.6,104.07c-3.01-11.37-3.01-23.32,0-34.69h29.31c-.76,5.75-1.16,11.54-1.21,17.35.05,5.8.46,11.59,1.21,17.35h-29.31Zm7.11,17.35h25.58c2.71,10.74,6.73,21.11,11.97,30.87-15.84-5.42-29.18-16.38-37.55-30.87Zm25.58-69.38h-25.58c8.38-14.49,21.72-25.46,37.55-30.87-5.23,9.76-9.25,20.13-11.97,30.87Zm34.43,103.72c-7.28-10.51-12.87-22.1-16.56-34.34h33.13c-3.69,12.24-9.28,23.83-16.56,34.34Zm20.29-51.69h-40.59c-.86-5.74-1.32-11.54-1.39-17.35.06-5.81.53-11.6,1.39-17.35h40.59c.86,5.74,1.32,11.54,1.39,17.35-.07,5.81-.53,11.6-1.39,17.35Zm2.17,48.22c5.23-9.76,9.25-20.13,11.97-30.87h25.58c-8.4,14.47-21.73,25.43-37.55,30.87Zm15.35-48.22c.76-5.75,1.16-11.54,1.21-17.35-.05-5.8-.46-11.59-1.21-17.35h29.31c3.01,11.37,3.01,23.32,0,34.69h-29.31Z"/>
      </g>
    </g>
  </g>
</svg>