<?xml version="1.0" encoding="UTF-8"?>
<svg id="Layer_2" data-name="Layer 2" xmlns="http://www.w3.org/2000/svg" viewBox="0 0 162.6 162.6">
  <defs>
    <style>
      .cls-1 {
        fill: #f40824;
        stroke-width: 0px;
      }
    </style>
  </defs>
  <g id="Layer_6" data-name="Layer 6">
    <path class="cls-1" d="m134.32,162.6H28.28c-15.62,0-28.28-12.66-28.28-28.28V28.28C0,12.66,12.66,0,28.28,0h106.05c15.62,0,28.28,12.66,28.28,28.28v106.05c0,15.62-12.66,28.28-28.28,28.28ZM42.42,81.3c0,21.47,17.41,38.88,38.88,38.88s38.88-17.41,38.88-38.88-17.41-38.88-38.88-38.88-38.88,17.41-38.88,38.88Zm77.77-45.95c0,3.9,3.17,7.07,7.07,7.07s7.07-3.17,7.07-7.07-3.17-7.07-7.07-7.07-7.07,3.17-7.07,7.07Z"/>
  </g>
</svg>