<?xml version="1.0" encoding="UTF-8"?>
<svg id="Layer_2" data-name="Layer 2" xmlns="http://www.w3.org/2000/svg" viewBox="0 0 173.94 173.94">
  <defs>
    <style>
      .cls-1 {
        fill: #f40824;
        stroke-width: 0px;
      }
    </style>
  </defs>
  <g id="Layer_6" data-name="Layer 6">
    <g id="LinekdIn">
      <g>
        <path class="cls-1" d="m173.91,173.94h0s.04,0,.04,0v-63.79c0-31.21-6.72-55.25-43.2-55.25-17.54,0-29.31,9.63-34.12,18.76h-.51v-15.84h-34.59v116.13h36.02v-57.5c0-15.14,2.87-29.77,21.62-29.77s18.75,17.28,18.75,30.76v56.52h35.98Z"/>
        <rect class="cls-1" x="2.87" y="57.82" width="36.07" height="116.13"/>
        <path class="cls-1" d="m20.89,0C9.36,0,0,9.36,0,20.89s9.36,21.08,20.89,21.08,20.89-9.55,20.89-21.08c0-11.53-9.36-20.89-20.89-20.89Z"/>
      </g>
    </g>
  </g>
</svg>