<?xml version="1.0" encoding="UTF-8"?>
<svg id="Layer_2" data-name="Layer 2" xmlns="http://www.w3.org/2000/svg" viewBox="0 0 130.62 180.4">
  <defs>
    <style>
      .cls-1 {
        fill: #f40824;
        stroke-width: 0px;
      }
    </style>
  </defs>
  <g id="Layer_6" data-name="Layer 6">
    <path class="cls-1" d="m63.93,180.4c-1.51-1.25-3.25-2.3-4.5-3.77-15.07-17.53-28.9-35.97-40.44-56.04-6.71-11.66-12.58-23.72-16.22-36.76C-2.69,64.27-.17,45.8,11.16,28.96,21.92,12.96,37.11,3.38,56.31.7c18.77-2.62,35.7,2.17,50.35,14.12,12.92,10.53,20.61,24.24,23.24,40.79,2.04,12.87-.42,25.11-4.86,37.09-5.96,16.05-14.49,30.75-23.94,44.94-9.09,13.65-19.12,26.6-29.84,39-1.26,1.46-2.99,2.52-4.5,3.77h-2.82Zm1.21-82.2c17.8.31,32.7-14.34,33.03-32.47.33-18.08-14.25-33-32.54-33.31-17.92-.31-32.85,14.37-33.12,32.56-.27,18.09,14.28,32.91,32.63,33.23Z"/>
  </g>
</svg>